<?xml version="1.0"?>
<svg width="1731" height="486" xmlns="http://www.w3.org/2000/svg" xmlns:svg="http://www.w3.org/2000/svg" preserveAspectRatio="xMidYMid meet" version="1.0">
 <metadata>Created by potrace 1.10, written by Peter Selinger 2001-2011</metadata>
 <g class="layer">
  <title>Layer 1</title>
  <g fill="#000000" id="svg_1" transform="matrix(0.14118 0 0 -0.14118 -70.1271 -39.2947)">
   <path d="m1843,-938.67c-27,-5 -53,-39 -53,-69c0,-29 45,-64 82,-64c42,0 82,43 73,78c-11,46 -48,66 -102,55z" id="svg_2"/>
   <path d="m2335,-938.67c-29,-7 -56,-34 -72,-70c-18,-44 2,-92 50,-121c42,-26 58,-27 119,-5l48,17l97,-49c160,-80 170,-88 178,-137c3,-24 11,-58 17,-76c14,-46 4,-75 -41,-121c-41,-42 -50,-46 -125,-56c-62,-8 -116,-56 -116,-103c0,-41 39,-94 82,-110c32,-12 40,-12 73,4c52,24 75,66 75,135c0,55 1,58 50,103c50,47 51,47 113,45c34,-2 85,0 113,5c59,9 85,-1 149,-58c22,-20 43,-36 46,-36c11,0 29,-52 29,-85c0,-51 20,-84 61,-106c48,-24 90,-16 130,23c23,23 29,38 29,72c0,74 -43,109 -133,107c-55,-2 -84,12 -149,72c-58,53 -71,83 -56,131c9,28 8,44 -7,83c-24,64 -31,72 -90,99c-63,30 -87,30 -153,-1c-30,-14 -67,-25 -82,-25c-27,0 -175,66 -232,104c-15,10 -38,41 -52,70c-13,28 -33,59 -43,68c-20,18 -77,29 -108,21z" id="svg_3"/>
   <path d="m10315,-1089.67c-57,-19 -95,-71 -95,-130c0,-89 53,-142 142,-142c47,0 60,4 93,33c32,28 38,40 42,83c7,72 -14,116 -69,143c-44,21 -76,25 -113,13z" id="svg_4"/>
   <path d="m1312,-1114.67c-34,-19 -55,-55 -64,-111c-6,-44 -14,-57 -55,-93c-27,-23 -65,-50 -86,-59c-36,-17 -41,-17 -85,-1c-60,22 -87,21 -137,-2c-51,-23 -80,-56 -99,-108c-23,-66 -1,-125 66,-173c35,-26 50,-30 102,-30c112,0 176,67 176,186c1,79 6,88 93,153c54,41 60,43 107,38c64,-8 111,12 139,56c26,43 26,67 0,101c-40,51 -108,70 -157,43z" id="svg_5"/>
   <path d="m12127,-1241.67c-48,-4 -91,-10 -95,-14c-4,-4 -9,-62 -12,-129l-5,-122l-85,-5l-85,-5l0,-100l0,-100l85,-5l85,-5l6,-260c6,-285 13,-322 69,-407c38,-57 105,-100 185,-118c73,-16 98,-16 198,3c112,21 114,25 80,130l-28,86l-96,-2c-109,-2 -121,3 -150,68c-16,35 -19,69 -19,256c0,157 3,220 13,232c10,14 34,17 137,19l125,3l0,100l0,100l-124,3c-69,1 -130,7 -138,13c-8,8 -13,50 -15,137c-3,146 10,134 -131,122z" id="svg_6"/>
   <path d="m1912,-1325.67c-30,-16 -62,-65 -62,-95c0,-13 15,-42 33,-65c52,-63 59,-81 51,-132c-7,-46 -45,-104 -68,-104c-25,0 -84,-66 -95,-107c-11,-39 -13,-41 -68,-52c-75,-15 -75,-15 -116,14c-20,13 -54,29 -75,36c-33,9 -44,8 -73,-6c-49,-26 -69,-53 -69,-94c0,-43 20,-75 60,-96c59,-31 101,-17 166,52c40,42 42,43 105,43l65,0l58,-59l59,-60l-6,-98c-8,-127 -21,-164 -74,-202c-53,-38 -71,-86 -49,-130c40,-76 125,-95 184,-41c50,45 53,89 13,146c-31,43 -32,47 -28,122c7,104 20,177 37,197c7,9 30,25 49,35c65,33 111,97 111,152c0,39 -40,105 -80,133c-75,52 -76,159 -1,240c55,60 57,103 5,151c-39,37 -88,45 -132,20z" id="svg_7"/>
   <path d="m2247,-1361.67c-40,-32 -43,-57 -11,-91c45,-47 102,-36 138,28c10,18 -13,60 -41,72c-35,16 -57,14 -86,-9z" id="svg_8"/>
   <path d="m5980,-1500.67c-91,-24 -161,-65 -226,-130c-71,-71 -112,-157 -134,-281c-17,-90 -17,-100 0,-190c19,-101 34,-149 59,-190c67,-110 159,-181 291,-222c88,-28 290,-30 371,-3c114,37 211,91 230,127c10,18 2,29 -57,89c-38,38 -72,69 -76,69c-4,0 -29,-13 -55,-28c-126,-73 -301,-75 -416,-5c-46,29 -99,108 -95,143l3,25l385,5l385,5l7,40c8,47 -6,180 -27,248c-46,154 -160,260 -322,302c-78,21 -240,19 -323,-4zm279,-212c69,-25 79,-33 119,-88c35,-48 41,-85 16,-95c-9,-3 -125,-6 -259,-6c-186,0 -245,3 -253,13c-16,19 39,110 85,138c94,60 198,73 292,38z" id="svg_9"/>
   <path d="m9775,-1496.67c-27,-8 -53,-14 -56,-15c-4,0 -30,-21 -58,-46c-52,-47 -71,-50 -71,-10c0,50 -17,57 -130,54l-105,-3l0,-495l0,-495l103,-3c59,-2 110,2 122,8c19,10 20,21 20,298c1,309 4,331 55,398c40,52 104,77 195,78c59,1 85,-4 121,-21c25,-13 51,-23 57,-23c6,0 25,27 41,60c17,33 37,70 46,83c23,33 18,53 -17,81c-73,55 -227,79 -323,51z" id="svg_10"/>
   <path d="m4915,-1506.67c-74,-18 -116,-39 -174,-85c-28,-22 -55,-38 -60,-36c-5,3 -12,23 -16,43c-13,71 -16,73 -118,73c-59,0 -97,-4 -105,-12c-9,-9 -12,-131 -12,-490c0,-462 1,-478 19,-488c28,-14 204,-13 219,2c9,9 12,84 12,278c0,290 6,332 57,399c61,80 118,105 225,100c64,-4 79,-8 119,-37c30,-22 56,-52 73,-85l26,-52l0,-296c0,-216 3,-298 12,-307c14,-14 205,-17 227,-3c11,7 12,67 9,337l-5,329l-30,73c-61,144 -158,228 -298,258c-74,16 -115,16 -180,-1z" id="svg_11"/>
   <path d="m8530,-1505.67c-57,-16 -116,-49 -157,-88c-17,-17 -37,-28 -45,-26c-7,3 -18,27 -24,54l-10,49l-90,3c-49,2 -99,0 -111,-3l-23,-5l0,-699l0,-699l23,-6c29,-8 175,-8 205,0l22,6l0,244c0,139 4,245 9,249c5,3 35,-13 67,-35c32,-22 67,-40 78,-40c12,-1 32,-7 46,-15c17,-10 57,-14 125,-15c269,-1 456,154 502,415c17,94 17,108 2,200c-20,115 -81,231 -159,303c-43,38 -142,90 -206,106c-73,19 -191,19 -254,2zm215,-241c50,-21 110,-78 138,-130c31,-60 31,-203 -1,-265c-32,-61 -68,-97 -127,-127c-65,-34 -192,-37 -246,-7c-120,67 -164,139 -164,269c0,66 5,89 25,129c31,61 95,118 157,139c58,20 159,16 218,-8z" id="svg_12"/>
   <path d="m11195,-1502.67c-63,-14 -115,-40 -178,-86c-59,-44 -77,-47 -77,-12c0,11 -7,35 -14,54l-15,35l-93,0c-60,0 -98,-4 -106,-12c-9,-9 -12,-131 -12,-490c0,-462 1,-478 19,-488c28,-14 204,-13 219,2c9,9 12,84 12,278c0,290 6,332 57,399c61,80 118,105 225,100c63,-4 79,-8 119,-37c27,-19 57,-53 72,-82l27,-50l0,-300c0,-286 1,-300 19,-310c24,-12 200,-13 220,-1c11,7 12,68 9,337l-5,329l-30,73c-61,144 -158,228 -298,258c-69,15 -113,16 -170,3z" id="svg_13"/>
   <path d="m1548,-1528.67c-30,-19 -52,-58 -42,-76c19,-33 50,-57 74,-57c24,0 55,24 74,57c10,18 -13,58 -44,76c-34,20 -29,20 -62,0z" id="svg_14"/>
   <path d="m6867,-1517.67c-4,-4 -7,-152 -7,-328c0,-272 2,-329 16,-371c54,-163 139,-252 284,-297c131,-42 276,-8 398,90l42,34l15,-35c8,-20 15,-43 15,-50c0,-30 27,-38 121,-35l94,3l0,495l0,495l-115,0l-115,0l-6,-290c-6,-333 -8,-342 -85,-421c-66,-68 -123,-85 -236,-70c-50,6 -64,13 -102,51c-80,77 -80,80 -86,425l-5,305l-111,3c-60,1 -113,-1 -117,-4z" id="svg_15"/>
   <path d="m10247,-1517.67c-4,-4 -7,-224 -7,-489c0,-361 3,-484 12,-493c17,-17 189,-16 211,1c16,11 17,50 15,497l-3,485l-111,3c-60,1 -113,-1 -117,-4z" id="svg_16"/>
   <path d="m2921,-1777.67c-28,-36 -26,-51 10,-85c36,-33 48,-35 89,-14c29,15 35,29 31,69c-5,59 -92,78 -130,30z" id="svg_17"/>
   <path d="m2345,-1846.67c-28,-27 -31,-45 -14,-78c16,-30 28,-37 65,-37c36,0 74,35 74,69c0,28 -46,71 -77,71c-13,0 -35,-11 -48,-25z" id="svg_18"/>
   <path d="m655,-1843.67c-28,-16 -35,-28 -35,-65c0,-61 79,-85 125,-38c14,13 25,32 25,42c-1,48 -72,87 -115,61z" id="svg_19"/>
   <path d="m1111,-1985.67c-61,-65 29,-149 101,-94c31,24 33,64 4,92c-32,33 -75,34 -105,2z" id="svg_20"/>
   <path d="m2873,-2042.67c-17,-11 -38,-35 -48,-54c-15,-32 -15,-38 0,-69c9,-19 25,-42 35,-51c24,-22 89,-29 116,-13c80,49 109,60 142,54c43,-6 69,-29 77,-67c4,-16 26,-46 52,-69c43,-38 50,-40 108,-40c52,0 68,4 102,29c106,77 90,227 -31,282c-76,34 -136,17 -223,-62c-59,-55 -112,-49 -166,17c-53,64 -108,79 -164,43z" id="svg_21"/>
   <path d="m795,-2123.67c-57,-31 -105,-101 -105,-153c0,-28 23,-83 47,-111c45,-52 141,-67 219,-34c42,18 70,9 155,-52c74,-53 76,-57 94,-142c10,-47 59,-86 110,-86c36,0 50,6 79,34c30,27 36,40 36,72c-1,73 -48,106 -148,102l-68,-3l-72,54c-94,69 -102,82 -102,159c0,53 -4,69 -27,98c-14,20 -43,44 -64,55c-42,21 -122,25 -154,7z" id="svg_22"/>
   <path d="m2290,-2187.67c-40,-27 -50,-45 -50,-90c0,-35 5,-47 35,-73c20,-17 47,-31 61,-31c41,0 92,-29 115,-66c11,-19 26,-40 32,-47c7,-7 27,-33 45,-59c44,-63 44,-114 1,-157c-27,-27 -37,-31 -88,-31c-58,0 -76,8 -128,56c-28,26 -80,40 -111,30c-11,-4 -34,-21 -51,-38c-55,-56 -32,-143 44,-168c47,-16 87,-5 136,35c66,56 161,59 203,8c12,-15 42,-48 67,-73c77,-78 77,-110 0,-187c-57,-57 -69,-89 -49,-129c16,-34 72,-74 104,-74c60,0 124,58 124,112c0,12 -16,43 -35,67c-40,50 -50,79 -40,113c11,34 32,55 79,78c45,21 74,54 95,108c11,26 11,41 1,76c-22,81 -110,136 -214,136c-61,0 -63,2 -160,145c-47,68 -48,71 -42,128c6,65 -7,104 -46,131c-29,21 -97,20 -128,0z" id="svg_23"/>
   <path d="m1471,-2257.67c-12,-15 -21,-34 -21,-44c0,-32 39,-70 71,-70c34,0 79,39 79,68c0,35 -38,72 -75,72c-24,0 -39,-7 -54,-26z" id="svg_24"/>
   <path d="m2636,-2337.67c-33,-32 -38,-54 -21,-80c34,-52 105,-51 139,1c13,20 13,26 0,51c-8,16 -21,32 -27,36c-21,13 -75,9 -91,-8z" id="svg_25"/>
   <path d="m3040,-2556.67c-20,-21 -22,-30 -14,-52c5,-15 23,-35 41,-46c29,-17 34,-17 62,-2c52,27 64,67 31,103c-30,32 -89,30 -120,-3z" id="svg_26"/>
   <path d="m1676,-2747.67c-29,-28 -37,-53 -26,-73c14,-28 50,-51 78,-51c29,0 72,42 72,70c0,53 -88,91 -124,54z" id="svg_27"/>
  </g>
 </g>
</svg>